<?xml version="1.0" encoding="utf-8" standalone="no"?>
<!DOCTYPE svg PUBLIC "-//W3C//DTD SVG 1.1//EN"
  "http://www.w3.org/Graphics/SVG/1.1/DTD/svg11.dtd">
<!-- Created with matplotlib (https://matplotlib.org/) -->
<svg height="288pt" version="1.1" viewBox="0 0 432 288" width="432pt" xmlns="http://www.w3.org/2000/svg" xmlns:xlink="http://www.w3.org/1999/xlink">
 <defs>
  <style type="text/css">
*{stroke-linecap:butt;stroke-linejoin:round;}
  </style>
 </defs>
 <g id="figure_1">
  <g id="patch_1">
   <path d="M 0 288 
L 432 288 
L 432 0 
L 0 0 
z
" style="fill:#ffffff;"/>
  </g>
  <g id="axes_1">
   <g id="patch_2">
    <path d="M 57.293 241.332 
L 416.007 241.332 
L 416.007 10.368 
L 57.293 10.368 
z
" style="fill:#ffffff;"/>
   </g>
   <g id="matplotlib.axis_1">
    <g id="xtick_1">
     <g id="line2d_1">
      <defs>
       <path d="M 0 0 
L 0 4.8 
" id="mb0457ca902" style="stroke:#262626;"/>
      </defs>
      <g>
       <use style="fill:#262626;stroke:#262626;" x="57.293" xlink:href="#mb0457ca902" y="246.332"/>
      </g>
     </g>
     <g id="text_1">
      <!-- 0 -->
      <defs>
       <path d="M 31.78125 66.40625 
Q 24.171875 66.40625 20.328125 58.90625 
Q 16.5 51.421875 16.5 36.375 
Q 16.5 21.390625 20.328125 13.890625 
Q 24.171875 6.390625 31.78125 6.390625 
Q 39.453125 6.390625 43.28125 13.890625 
Q 47.125 21.390625 47.125 36.375 
Q 47.125 51.421875 43.28125 58.90625 
Q 39.453125 66.40625 31.78125 66.40625 
z
M 31.78125 74.21875 
Q 44.046875 74.21875 50.515625 64.515625 
Q 56.984375 54.828125 56.984375 36.375 
Q 56.984375 17.96875 50.515625 8.265625 
Q 44.046875 -1.421875 31.78125 -1.421875 
Q 19.53125 -1.421875 13.0625 8.265625 
Q 6.59375 17.96875 6.59375 36.375 
Q 6.59375 54.828125 13.0625 64.515625 
Q 19.53125 74.21875 31.78125 74.21875 
z
" id="DejaVuSans-48"/>
      </defs>
      <g style="fill:#262626;" transform="translate(54.4935 261.318625)scale(0.088 -0.088)">
       <use xlink:href="#DejaVuSans-48"/>
      </g>
     </g>
    </g>
    <g id="xtick_2">
     <g id="line2d_2">
      <g>
       <use style="fill:#262626;stroke:#262626;" x="102.13225" xlink:href="#mb0457ca902" y="246.332"/>
      </g>
     </g>
     <g id="text_2">
      <!-- 5 -->
      <defs>
       <path d="M 10.796875 72.90625 
L 49.515625 72.90625 
L 49.515625 64.59375 
L 19.828125 64.59375 
L 19.828125 46.734375 
Q 21.96875 47.46875 24.109375 47.828125 
Q 26.265625 48.1875 28.421875 48.1875 
Q 40.625 48.1875 47.75 41.5 
Q 54.890625 34.8125 54.890625 23.390625 
Q 54.890625 11.625 47.5625 5.09375 
Q 40.234375 -1.421875 26.90625 -1.421875 
Q 22.3125 -1.421875 17.546875 -0.640625 
Q 12.796875 0.140625 7.71875 1.703125 
L 7.71875 11.625 
Q 12.109375 9.234375 16.796875 8.0625 
Q 21.484375 6.890625 26.703125 6.890625 
Q 35.15625 6.890625 40.078125 11.328125 
Q 45.015625 15.765625 45.015625 23.390625 
Q 45.015625 31 40.078125 35.4375 
Q 35.15625 39.890625 26.703125 39.890625 
Q 22.75 39.890625 18.8125 39.015625 
Q 14.890625 38.140625 10.796875 36.28125 
z
" id="DejaVuSans-53"/>
      </defs>
      <g style="fill:#262626;" transform="translate(99.33275 261.318625)scale(0.088 -0.088)">
       <use xlink:href="#DejaVuSans-53"/>
      </g>
     </g>
    </g>
    <g id="xtick_3">
     <g id="line2d_3">
      <g>
       <use style="fill:#262626;stroke:#262626;" x="146.9715" xlink:href="#mb0457ca902" y="246.332"/>
      </g>
     </g>
     <g id="text_3">
      <!-- 10 -->
      <defs>
       <path d="M 12.40625 8.296875 
L 28.515625 8.296875 
L 28.515625 63.921875 
L 10.984375 60.40625 
L 10.984375 69.390625 
L 28.421875 72.90625 
L 38.28125 72.90625 
L 38.28125 8.296875 
L 54.390625 8.296875 
L 54.390625 0 
L 12.40625 0 
z
" id="DejaVuSans-49"/>
      </defs>
      <g style="fill:#262626;" transform="translate(141.3725 261.318625)scale(0.088 -0.088)">
       <use xlink:href="#DejaVuSans-49"/>
       <use x="63.623047" xlink:href="#DejaVuSans-48"/>
      </g>
     </g>
    </g>
    <g id="xtick_4">
     <g id="line2d_4">
      <g>
       <use style="fill:#262626;stroke:#262626;" x="191.81075" xlink:href="#mb0457ca902" y="246.332"/>
      </g>
     </g>
     <g id="text_4">
      <!-- 15 -->
      <g style="fill:#262626;" transform="translate(186.21175 261.318625)scale(0.088 -0.088)">
       <use xlink:href="#DejaVuSans-49"/>
       <use x="63.623047" xlink:href="#DejaVuSans-53"/>
      </g>
     </g>
    </g>
    <g id="xtick_5">
     <g id="line2d_5">
      <g>
       <use style="fill:#262626;stroke:#262626;" x="236.65" xlink:href="#mb0457ca902" y="246.332"/>
      </g>
     </g>
     <g id="text_5">
      <!-- 20 -->
      <defs>
       <path d="M 19.1875 8.296875 
L 53.609375 8.296875 
L 53.609375 0 
L 7.328125 0 
L 7.328125 8.296875 
Q 12.9375 14.109375 22.625 23.890625 
Q 32.328125 33.6875 34.8125 36.53125 
Q 39.546875 41.84375 41.421875 45.53125 
Q 43.3125 49.21875 43.3125 52.78125 
Q 43.3125 58.59375 39.234375 62.25 
Q 35.15625 65.921875 28.609375 65.921875 
Q 23.96875 65.921875 18.8125 64.3125 
Q 13.671875 62.703125 7.8125 59.421875 
L 7.8125 69.390625 
Q 13.765625 71.78125 18.9375 73 
Q 24.125 74.21875 28.421875 74.21875 
Q 39.75 74.21875 46.484375 68.546875 
Q 53.21875 62.890625 53.21875 53.421875 
Q 53.21875 48.921875 51.53125 44.890625 
Q 49.859375 40.875 45.40625 35.40625 
Q 44.1875 33.984375 37.640625 27.21875 
Q 31.109375 20.453125 19.1875 8.296875 
z
" id="DejaVuSans-50"/>
      </defs>
      <g style="fill:#262626;" transform="translate(231.051 261.318625)scale(0.088 -0.088)">
       <use xlink:href="#DejaVuSans-50"/>
       <use x="63.623047" xlink:href="#DejaVuSans-48"/>
      </g>
     </g>
    </g>
    <g id="xtick_6">
     <g id="line2d_6">
      <g>
       <use style="fill:#262626;stroke:#262626;" x="281.48925" xlink:href="#mb0457ca902" y="246.332"/>
      </g>
     </g>
     <g id="text_6">
      <!-- 25 -->
      <g style="fill:#262626;" transform="translate(275.89025 261.318625)scale(0.088 -0.088)">
       <use xlink:href="#DejaVuSans-50"/>
       <use x="63.623047" xlink:href="#DejaVuSans-53"/>
      </g>
     </g>
    </g>
    <g id="xtick_7">
     <g id="line2d_7">
      <g>
       <use style="fill:#262626;stroke:#262626;" x="326.3285" xlink:href="#mb0457ca902" y="246.332"/>
      </g>
     </g>
     <g id="text_7">
      <!-- 30 -->
      <defs>
       <path d="M 40.578125 39.3125 
Q 47.65625 37.796875 51.625 33 
Q 55.609375 28.21875 55.609375 21.1875 
Q 55.609375 10.40625 48.1875 4.484375 
Q 40.765625 -1.421875 27.09375 -1.421875 
Q 22.515625 -1.421875 17.65625 -0.515625 
Q 12.796875 0.390625 7.625 2.203125 
L 7.625 11.71875 
Q 11.71875 9.328125 16.59375 8.109375 
Q 21.484375 6.890625 26.8125 6.890625 
Q 36.078125 6.890625 40.9375 10.546875 
Q 45.796875 14.203125 45.796875 21.1875 
Q 45.796875 27.640625 41.28125 31.265625 
Q 36.765625 34.90625 28.71875 34.90625 
L 20.21875 34.90625 
L 20.21875 43.015625 
L 29.109375 43.015625 
Q 36.375 43.015625 40.234375 45.921875 
Q 44.09375 48.828125 44.09375 54.296875 
Q 44.09375 59.90625 40.109375 62.90625 
Q 36.140625 65.921875 28.71875 65.921875 
Q 24.65625 65.921875 20.015625 65.03125 
Q 15.375 64.15625 9.8125 62.3125 
L 9.8125 71.09375 
Q 15.4375 72.65625 20.34375 73.4375 
Q 25.25 74.21875 29.59375 74.21875 
Q 40.828125 74.21875 47.359375 69.109375 
Q 53.90625 64.015625 53.90625 55.328125 
Q 53.90625 49.265625 50.4375 45.09375 
Q 46.96875 40.921875 40.578125 39.3125 
z
" id="DejaVuSans-51"/>
      </defs>
      <g style="fill:#262626;" transform="translate(320.7295 261.318625)scale(0.088 -0.088)">
       <use xlink:href="#DejaVuSans-51"/>
       <use x="63.623047" xlink:href="#DejaVuSans-48"/>
      </g>
     </g>
    </g>
    <g id="xtick_8">
     <g id="line2d_8">
      <g>
       <use style="fill:#262626;stroke:#262626;" x="371.16775" xlink:href="#mb0457ca902" y="246.332"/>
      </g>
     </g>
     <g id="text_8">
      <!-- 35 -->
      <g style="fill:#262626;" transform="translate(365.56875 261.318625)scale(0.088 -0.088)">
       <use xlink:href="#DejaVuSans-51"/>
       <use x="63.623047" xlink:href="#DejaVuSans-53"/>
      </g>
     </g>
    </g>
    <g id="xtick_9">
     <g id="line2d_9">
      <g>
       <use style="fill:#262626;stroke:#262626;" x="416.007" xlink:href="#mb0457ca902" y="246.332"/>
      </g>
     </g>
     <g id="text_9">
      <!-- 40 -->
      <defs>
       <path d="M 37.796875 64.3125 
L 12.890625 25.390625 
L 37.796875 25.390625 
z
M 35.203125 72.90625 
L 47.609375 72.90625 
L 47.609375 25.390625 
L 58.015625 25.390625 
L 58.015625 17.1875 
L 47.609375 17.1875 
L 47.609375 0 
L 37.796875 0 
L 37.796875 17.1875 
L 4.890625 17.1875 
L 4.890625 26.703125 
z
" id="DejaVuSans-52"/>
      </defs>
      <g style="fill:#262626;" transform="translate(410.408 261.318625)scale(0.088 -0.088)">
       <use xlink:href="#DejaVuSans-52"/>
       <use x="63.623047" xlink:href="#DejaVuSans-48"/>
      </g>
     </g>
    </g>
    <g id="text_10">
     <!-- $\tau$ -->
     <defs>
      <path d="M 32.859375 9.96875 
Q 34.1875 7.625 39.453125 7.625 
L 43.75 7.625 
L 42.28125 0 
L 36.921875 0 
Q 28.125 0 25 4.6875 
Q 21.921875 9.46875 23.96875 19.828125 
L 29 45.703125 
L 8.453125 45.703125 
L 10.203125 54.6875 
L 60.640625 54.6875 
L 58.890625 45.703125 
L 38.1875 45.703125 
L 33.015625 19.28125 
Q 31.640625 12.203125 32.859375 9.96875 
z
" id="DejaVuSans-Oblique-964"/>
     </defs>
     <g style="fill:#262626;" transform="translate(233.722 274.44325)scale(0.096 -0.096)">
      <use transform="translate(0 0.3125)" xlink:href="#DejaVuSans-Oblique-964"/>
     </g>
    </g>
   </g>
   <g id="matplotlib.axis_2">
    <g id="ytick_1">
     <g id="line2d_10">
      <defs>
       <path d="M 0 0 
L -4.8 0 
" id="m0b53edcf97" style="stroke:#262626;"/>
      </defs>
      <g>
       <use style="fill:#262626;stroke:#262626;" x="52.293" xlink:href="#m0b53edcf97" y="241.332"/>
      </g>
     </g>
     <g id="text_11">
      <!-- 0.00 -->
      <defs>
       <path d="M 10.6875 12.40625 
L 21 12.40625 
L 21 0 
L 10.6875 0 
z
" id="DejaVuSans-46"/>
      </defs>
      <g style="fill:#262626;" transform="translate(24.39925 244.675313)scale(0.088 -0.088)">
       <use xlink:href="#DejaVuSans-48"/>
       <use x="63.623047" xlink:href="#DejaVuSans-46"/>
       <use x="95.410156" xlink:href="#DejaVuSans-48"/>
       <use x="159.033203" xlink:href="#DejaVuSans-48"/>
      </g>
     </g>
    </g>
    <g id="ytick_2">
     <g id="line2d_11">
      <g>
       <use style="fill:#262626;stroke:#262626;" x="52.293" xlink:href="#m0b53edcf97" y="202.225322"/>
      </g>
     </g>
     <g id="text_12">
      <!-- 0.01 -->
      <g style="fill:#262626;" transform="translate(24.39925 205.568634)scale(0.088 -0.088)">
       <use xlink:href="#DejaVuSans-48"/>
       <use x="63.623047" xlink:href="#DejaVuSans-46"/>
       <use x="95.410156" xlink:href="#DejaVuSans-48"/>
       <use x="159.033203" xlink:href="#DejaVuSans-49"/>
      </g>
     </g>
    </g>
    <g id="ytick_3">
     <g id="line2d_12">
      <g>
       <use style="fill:#262626;stroke:#262626;" x="52.293" xlink:href="#m0b53edcf97" y="163.118644"/>
      </g>
     </g>
     <g id="text_13">
      <!-- 0.02 -->
      <g style="fill:#262626;" transform="translate(24.39925 166.461956)scale(0.088 -0.088)">
       <use xlink:href="#DejaVuSans-48"/>
       <use x="63.623047" xlink:href="#DejaVuSans-46"/>
       <use x="95.410156" xlink:href="#DejaVuSans-48"/>
       <use x="159.033203" xlink:href="#DejaVuSans-50"/>
      </g>
     </g>
    </g>
    <g id="ytick_4">
     <g id="line2d_13">
      <g>
       <use style="fill:#262626;stroke:#262626;" x="52.293" xlink:href="#m0b53edcf97" y="124.011965"/>
      </g>
     </g>
     <g id="text_14">
      <!-- 0.03 -->
      <g style="fill:#262626;" transform="translate(24.39925 127.355278)scale(0.088 -0.088)">
       <use xlink:href="#DejaVuSans-48"/>
       <use x="63.623047" xlink:href="#DejaVuSans-46"/>
       <use x="95.410156" xlink:href="#DejaVuSans-48"/>
       <use x="159.033203" xlink:href="#DejaVuSans-51"/>
      </g>
     </g>
    </g>
    <g id="ytick_5">
     <g id="line2d_14">
      <g>
       <use style="fill:#262626;stroke:#262626;" x="52.293" xlink:href="#m0b53edcf97" y="84.905287"/>
      </g>
     </g>
     <g id="text_15">
      <!-- 0.04 -->
      <g style="fill:#262626;" transform="translate(24.39925 88.2486)scale(0.088 -0.088)">
       <use xlink:href="#DejaVuSans-48"/>
       <use x="63.623047" xlink:href="#DejaVuSans-46"/>
       <use x="95.410156" xlink:href="#DejaVuSans-48"/>
       <use x="159.033203" xlink:href="#DejaVuSans-52"/>
      </g>
     </g>
    </g>
    <g id="ytick_6">
     <g id="line2d_15">
      <g>
       <use style="fill:#262626;stroke:#262626;" x="52.293" xlink:href="#m0b53edcf97" y="45.798609"/>
      </g>
     </g>
     <g id="text_16">
      <!-- 0.05 -->
      <g style="fill:#262626;" transform="translate(24.39925 49.141921)scale(0.088 -0.088)">
       <use xlink:href="#DejaVuSans-48"/>
       <use x="63.623047" xlink:href="#DejaVuSans-46"/>
       <use x="95.410156" xlink:href="#DejaVuSans-48"/>
       <use x="159.033203" xlink:href="#DejaVuSans-53"/>
      </g>
     </g>
    </g>
    <g id="text_17">
     <!-- frequency -->
     <defs>
      <path d="M 37.109375 75.984375 
L 37.109375 68.5 
L 28.515625 68.5 
Q 23.6875 68.5 21.796875 66.546875 
Q 19.921875 64.59375 19.921875 59.515625 
L 19.921875 54.6875 
L 34.71875 54.6875 
L 34.71875 47.703125 
L 19.921875 47.703125 
L 19.921875 0 
L 10.890625 0 
L 10.890625 47.703125 
L 2.296875 47.703125 
L 2.296875 54.6875 
L 10.890625 54.6875 
L 10.890625 58.5 
Q 10.890625 67.625 15.140625 71.796875 
Q 19.390625 75.984375 28.609375 75.984375 
z
" id="DejaVuSans-102"/>
      <path d="M 41.109375 46.296875 
Q 39.59375 47.171875 37.8125 47.578125 
Q 36.03125 48 33.890625 48 
Q 26.265625 48 22.1875 43.046875 
Q 18.109375 38.09375 18.109375 28.8125 
L 18.109375 0 
L 9.078125 0 
L 9.078125 54.6875 
L 18.109375 54.6875 
L 18.109375 46.1875 
Q 20.953125 51.171875 25.484375 53.578125 
Q 30.03125 56 36.53125 56 
Q 37.453125 56 38.578125 55.875 
Q 39.703125 55.765625 41.0625 55.515625 
z
" id="DejaVuSans-114"/>
      <path d="M 56.203125 29.59375 
L 56.203125 25.203125 
L 14.890625 25.203125 
Q 15.484375 15.921875 20.484375 11.0625 
Q 25.484375 6.203125 34.421875 6.203125 
Q 39.59375 6.203125 44.453125 7.46875 
Q 49.3125 8.734375 54.109375 11.28125 
L 54.109375 2.78125 
Q 49.265625 0.734375 44.1875 -0.34375 
Q 39.109375 -1.421875 33.890625 -1.421875 
Q 20.796875 -1.421875 13.15625 6.1875 
Q 5.515625 13.8125 5.515625 26.8125 
Q 5.515625 40.234375 12.765625 48.109375 
Q 20.015625 56 32.328125 56 
Q 43.359375 56 49.78125 48.890625 
Q 56.203125 41.796875 56.203125 29.59375 
z
M 47.21875 32.234375 
Q 47.125 39.59375 43.09375 43.984375 
Q 39.0625 48.390625 32.421875 48.390625 
Q 24.90625 48.390625 20.390625 44.140625 
Q 15.875 39.890625 15.1875 32.171875 
z
" id="DejaVuSans-101"/>
      <path d="M 14.796875 27.296875 
Q 14.796875 17.390625 18.875 11.75 
Q 22.953125 6.109375 30.078125 6.109375 
Q 37.203125 6.109375 41.296875 11.75 
Q 45.40625 17.390625 45.40625 27.296875 
Q 45.40625 37.203125 41.296875 42.84375 
Q 37.203125 48.484375 30.078125 48.484375 
Q 22.953125 48.484375 18.875 42.84375 
Q 14.796875 37.203125 14.796875 27.296875 
z
M 45.40625 8.203125 
Q 42.578125 3.328125 38.25 0.953125 
Q 33.9375 -1.421875 27.875 -1.421875 
Q 17.96875 -1.421875 11.734375 6.484375 
Q 5.515625 14.40625 5.515625 27.296875 
Q 5.515625 40.1875 11.734375 48.09375 
Q 17.96875 56 27.875 56 
Q 33.9375 56 38.25 53.625 
Q 42.578125 51.265625 45.40625 46.390625 
L 45.40625 54.6875 
L 54.390625 54.6875 
L 54.390625 -20.796875 
L 45.40625 -20.796875 
z
" id="DejaVuSans-113"/>
      <path d="M 8.5 21.578125 
L 8.5 54.6875 
L 17.484375 54.6875 
L 17.484375 21.921875 
Q 17.484375 14.15625 20.5 10.265625 
Q 23.53125 6.390625 29.59375 6.390625 
Q 36.859375 6.390625 41.078125 11.03125 
Q 45.3125 15.671875 45.3125 23.6875 
L 45.3125 54.6875 
L 54.296875 54.6875 
L 54.296875 0 
L 45.3125 0 
L 45.3125 8.40625 
Q 42.046875 3.421875 37.71875 1 
Q 33.40625 -1.421875 27.6875 -1.421875 
Q 18.265625 -1.421875 13.375 4.4375 
Q 8.5 10.296875 8.5 21.578125 
z
M 31.109375 56 
z
" id="DejaVuSans-117"/>
      <path d="M 54.890625 33.015625 
L 54.890625 0 
L 45.90625 0 
L 45.90625 32.71875 
Q 45.90625 40.484375 42.875 44.328125 
Q 39.84375 48.1875 33.796875 48.1875 
Q 26.515625 48.1875 22.3125 43.546875 
Q 18.109375 38.921875 18.109375 30.90625 
L 18.109375 0 
L 9.078125 0 
L 9.078125 54.6875 
L 18.109375 54.6875 
L 18.109375 46.1875 
Q 21.34375 51.125 25.703125 53.5625 
Q 30.078125 56 35.796875 56 
Q 45.21875 56 50.046875 50.171875 
Q 54.890625 44.34375 54.890625 33.015625 
z
" id="DejaVuSans-110"/>
      <path d="M 48.78125 52.59375 
L 48.78125 44.1875 
Q 44.96875 46.296875 41.140625 47.34375 
Q 37.3125 48.390625 33.40625 48.390625 
Q 24.65625 48.390625 19.8125 42.84375 
Q 14.984375 37.3125 14.984375 27.296875 
Q 14.984375 17.28125 19.8125 11.734375 
Q 24.65625 6.203125 33.40625 6.203125 
Q 37.3125 6.203125 41.140625 7.25 
Q 44.96875 8.296875 48.78125 10.40625 
L 48.78125 2.09375 
Q 45.015625 0.34375 40.984375 -0.53125 
Q 36.96875 -1.421875 32.421875 -1.421875 
Q 20.0625 -1.421875 12.78125 6.34375 
Q 5.515625 14.109375 5.515625 27.296875 
Q 5.515625 40.671875 12.859375 48.328125 
Q 20.21875 56 33.015625 56 
Q 37.15625 56 41.109375 55.140625 
Q 45.0625 54.296875 48.78125 52.59375 
z
" id="DejaVuSans-99"/>
      <path d="M 32.171875 -5.078125 
Q 28.375 -14.84375 24.75 -17.8125 
Q 21.140625 -20.796875 15.09375 -20.796875 
L 7.90625 -20.796875 
L 7.90625 -13.28125 
L 13.1875 -13.28125 
Q 16.890625 -13.28125 18.9375 -11.515625 
Q 21 -9.765625 23.484375 -3.21875 
L 25.09375 0.875 
L 2.984375 54.6875 
L 12.5 54.6875 
L 29.59375 11.921875 
L 46.6875 54.6875 
L 56.203125 54.6875 
z
" id="DejaVuSans-121"/>
     </defs>
     <g style="fill:#262626;" transform="translate(18.40275 150.03)rotate(-90)scale(0.096 -0.096)">
      <use xlink:href="#DejaVuSans-102"/>
      <use x="35.205078" xlink:href="#DejaVuSans-114"/>
      <use x="76.287109" xlink:href="#DejaVuSans-101"/>
      <use x="137.810547" xlink:href="#DejaVuSans-113"/>
      <use x="201.287109" xlink:href="#DejaVuSans-117"/>
      <use x="264.666016" xlink:href="#DejaVuSans-101"/>
      <use x="326.189453" xlink:href="#DejaVuSans-110"/>
      <use x="389.568359" xlink:href="#DejaVuSans-99"/>
      <use x="444.548828" xlink:href="#DejaVuSans-121"/>
     </g>
    </g>
   </g>
   <g id="patch_3">
    <path clip-path="url(#pa2676aaf92)" d="M 57.293 241.332 
L 102.13225 241.332 
L 102.13225 176.154203 
L 57.293 176.154203 
z
" style="fill:#ccb974;opacity:0.4;stroke:#ffffff;stroke-linejoin:miter;stroke-width:0.8;"/>
   </g>
   <g id="patch_4">
    <path clip-path="url(#pa2676aaf92)" d="M 102.13225 241.332 
L 146.9715 241.332 
L 146.9715 29.50416 
L 102.13225 29.50416 
z
" style="fill:#ccb974;opacity:0.4;stroke:#ffffff;stroke-linejoin:miter;stroke-width:0.8;"/>
   </g>
   <g id="patch_5">
    <path clip-path="url(#pa2676aaf92)" d="M 146.9715 241.332 
L 191.81075 241.332 
L 191.81075 29.50416 
L 146.9715 29.50416 
z
" style="fill:#ccb974;opacity:0.4;stroke:#ffffff;stroke-linejoin:miter;stroke-width:0.8;"/>
   </g>
   <g id="patch_6">
    <path clip-path="url(#pa2676aaf92)" d="M 191.81075 241.332 
L 236.65 241.332 
L 236.65 127.270855 
L 191.81075 127.270855 
z
" style="fill:#ccb974;opacity:0.4;stroke:#ffffff;stroke-linejoin:miter;stroke-width:0.8;"/>
   </g>
   <g id="patch_7">
    <path clip-path="url(#pa2676aaf92)" d="M 236.65 241.332 
L 281.48925 241.332 
L 281.48925 127.270855 
L 236.65 127.270855 
z
" style="fill:#ccb974;opacity:0.4;stroke:#ffffff;stroke-linejoin:miter;stroke-width:0.8;"/>
   </g>
   <g id="patch_8">
    <path clip-path="url(#pa2676aaf92)" d="M 281.48925 241.332 
L 326.3285 241.332 
L 326.3285 225.037551 
L 281.48925 225.037551 
z
" style="fill:#ccb974;opacity:0.4;stroke:#ffffff;stroke-linejoin:miter;stroke-width:0.8;"/>
   </g>
   <g id="patch_9">
    <path clip-path="url(#pa2676aaf92)" d="M 326.3285 241.332 
L 371.16775 241.332 
L 371.16775 208.743101 
L 326.3285 208.743101 
z
" style="fill:#ccb974;opacity:0.4;stroke:#ffffff;stroke-linejoin:miter;stroke-width:0.8;"/>
   </g>
   <g id="patch_10">
    <path clip-path="url(#pa2676aaf92)" d="M 371.16775 241.332 
L 416.007 241.332 
L 416.007 225.037551 
L 371.16775 225.037551 
z
" style="fill:#ccb974;opacity:0.4;stroke:#ffffff;stroke-linejoin:miter;stroke-width:0.8;"/>
   </g>
   <g id="LineCollection_1">
    <path clip-path="url(#pa2676aaf92)" d="M 347.327892 241.332 
L 347.327892 229.7838 
" style="fill:none;stroke:#ccb974;"/>
    <path clip-path="url(#pa2676aaf92)" d="M 245.624321 241.332 
L 245.624321 229.7838 
" style="fill:none;stroke:#ccb974;"/>
    <path clip-path="url(#pa2676aaf92)" d="M 185.386378 241.332 
L 185.386378 229.7838 
" style="fill:none;stroke:#ccb974;"/>
    <path clip-path="url(#pa2676aaf92)" d="M 173.556062 241.332 
L 173.556062 229.7838 
" style="fill:none;stroke:#ccb974;"/>
    <path clip-path="url(#pa2676aaf92)" d="M 166.544188 241.332 
L 166.544188 229.7838 
" style="fill:none;stroke:#ccb974;"/>
    <path clip-path="url(#pa2676aaf92)" d="M 185.434905 241.332 
L 185.434905 229.7838 
" style="fill:none;stroke:#ccb974;"/>
    <path clip-path="url(#pa2676aaf92)" d="M 300.014398 241.332 
L 300.014398 229.7838 
" style="fill:none;stroke:#ccb974;"/>
    <path clip-path="url(#pa2676aaf92)" d="M 126.361619 241.332 
L 126.361619 229.7838 
" style="fill:none;stroke:#ccb974;"/>
    <path clip-path="url(#pa2676aaf92)" d="M 113.664283 241.332 
L 113.664283 229.7838 
" style="fill:none;stroke:#ccb974;"/>
    <path clip-path="url(#pa2676aaf92)" d="M 157.593805 241.332 
L 157.593805 229.7838 
" style="fill:none;stroke:#ccb974;"/>
    <path clip-path="url(#pa2676aaf92)" d="M 238.43257 241.332 
L 238.43257 229.7838 
" style="fill:none;stroke:#ccb974;"/>
    <path clip-path="url(#pa2676aaf92)" d="M 412.549264 241.332 
L 412.549264 229.7838 
" style="fill:none;stroke:#ccb974;"/>
    <path clip-path="url(#pa2676aaf92)" d="M 95.934341 241.332 
L 95.934341 229.7838 
" style="fill:none;stroke:#ccb974;"/>
    <path clip-path="url(#pa2676aaf92)" d="M 128.628817 241.332 
L 128.628817 229.7838 
" style="fill:none;stroke:#ccb974;"/>
    <path clip-path="url(#pa2676aaf92)" d="M 152.706137 241.332 
L 152.706137 229.7838 
" style="fill:none;stroke:#ccb974;"/>
    <path clip-path="url(#pa2676aaf92)" d="M 163.901066 241.332 
L 163.901066 229.7838 
" style="fill:none;stroke:#ccb974;"/>
    <path clip-path="url(#pa2676aaf92)" d="M 207.592485 241.332 
L 207.592485 229.7838 
" style="fill:none;stroke:#ccb974;"/>
    <path clip-path="url(#pa2676aaf92)" d="M 143.074433 241.332 
L 143.074433 229.7838 
" style="fill:none;stroke:#ccb974;"/>
    <path clip-path="url(#pa2676aaf92)" d="M 85.71125 241.332 
L 85.71125 229.7838 
" style="fill:none;stroke:#ccb974;"/>
    <path clip-path="url(#pa2676aaf92)" d="M 180.761401 241.332 
L 180.761401 229.7838 
" style="fill:none;stroke:#ccb974;"/>
    <path clip-path="url(#pa2676aaf92)" d="M 122.339677 241.332 
L 122.339677 229.7838 
" style="fill:none;stroke:#ccb974;"/>
    <path clip-path="url(#pa2676aaf92)" d="M 209.966442 241.332 
L 209.966442 229.7838 
" style="fill:none;stroke:#ccb974;"/>
    <path clip-path="url(#pa2676aaf92)" d="M 350.262825 241.332 
L 350.262825 229.7838 
" style="fill:none;stroke:#ccb974;"/>
    <path clip-path="url(#pa2676aaf92)" d="M 128.771164 241.332 
L 128.771164 229.7838 
" style="fill:none;stroke:#ccb974;"/>
    <path clip-path="url(#pa2676aaf92)" d="M 201.532391 241.332 
L 201.532391 229.7838 
" style="fill:none;stroke:#ccb974;"/>
    <path clip-path="url(#pa2676aaf92)" d="M 123.856318 241.332 
L 123.856318 229.7838 
" style="fill:none;stroke:#ccb974;"/>
    <path clip-path="url(#pa2676aaf92)" d="M 277.592183 241.332 
L 277.592183 229.7838 
" style="fill:none;stroke:#ccb974;"/>
    <path clip-path="url(#pa2676aaf92)" d="M 106.906692 241.332 
L 106.906692 229.7838 
" style="fill:none;stroke:#ccb974;"/>
    <path clip-path="url(#pa2676aaf92)" d="M 155.004391 241.332 
L 155.004391 229.7838 
" style="fill:none;stroke:#ccb974;"/>
    <path clip-path="url(#pa2676aaf92)" d="M 152.766959 241.332 
L 152.766959 229.7838 
" style="fill:none;stroke:#ccb974;"/>
    <path clip-path="url(#pa2676aaf92)" d="M 195.386892 241.332 
L 195.386892 229.7838 
" style="fill:none;stroke:#ccb974;"/>
    <path clip-path="url(#pa2676aaf92)" d="M 124.150718 241.332 
L 124.150718 229.7838 
" style="fill:none;stroke:#ccb974;"/>
    <path clip-path="url(#pa2676aaf92)" d="M 78.043932 241.332 
L 78.043932 229.7838 
" style="fill:none;stroke:#ccb974;"/>
    <path clip-path="url(#pa2676aaf92)" d="M 161.16542 241.332 
L 161.16542 229.7838 
" style="fill:none;stroke:#ccb974;"/>
    <path clip-path="url(#pa2676aaf92)" d="M 269.206662 241.332 
L 269.206662 229.7838 
" style="fill:none;stroke:#ccb974;"/>
    <path clip-path="url(#pa2676aaf92)" d="M 135.574048 241.332 
L 135.574048 229.7838 
" style="fill:none;stroke:#ccb974;"/>
    <path clip-path="url(#pa2676aaf92)" d="M 195.100905 241.332 
L 195.100905 229.7838 
" style="fill:none;stroke:#ccb974;"/>
    <path clip-path="url(#pa2676aaf92)" d="M 247.23219 241.332 
L 247.23219 229.7838 
" style="fill:none;stroke:#ccb974;"/>
    <path clip-path="url(#pa2676aaf92)" d="M 194.779975 241.332 
L 194.779975 229.7838 
" style="fill:none;stroke:#ccb974;"/>
    <path clip-path="url(#pa2676aaf92)" d="M 188.239141 241.332 
L 188.239141 229.7838 
" style="fill:none;stroke:#ccb974;"/>
    <path clip-path="url(#pa2676aaf92)" d="M 177.754002 241.332 
L 177.754002 229.7838 
" style="fill:none;stroke:#ccb974;"/>
    <path clip-path="url(#pa2676aaf92)" d="M 128.258714 241.332 
L 128.258714 229.7838 
" style="fill:none;stroke:#ccb974;"/>
    <path clip-path="url(#pa2676aaf92)" d="M 121.714643 241.332 
L 121.714643 229.7838 
" style="fill:none;stroke:#ccb974;"/>
    <path clip-path="url(#pa2676aaf92)" d="M 115.804014 241.332 
L 115.804014 229.7838 
" style="fill:none;stroke:#ccb974;"/>
    <path clip-path="url(#pa2676aaf92)" d="M 244.517898 241.332 
L 244.517898 229.7838 
" style="fill:none;stroke:#ccb974;"/>
    <path clip-path="url(#pa2676aaf92)" d="M 278.833188 241.332 
L 278.833188 229.7838 
" style="fill:none;stroke:#ccb974;"/>
    <path clip-path="url(#pa2676aaf92)" d="M 67.137578 241.332 
L 67.137578 229.7838 
" style="fill:none;stroke:#ccb974;"/>
    <path clip-path="url(#pa2676aaf92)" d="M 208.332686 241.332 
L 208.332686 229.7838 
" style="fill:none;stroke:#ccb974;"/>
   </g>
   <g id="line2d_16">
    <path clip-path="url(#pa2676aaf92)" d="M -1 241.328707 
L 17.518904 241.244589 
L 25.80429 241.019265 
L 31.327881 240.649766 
L 34.089676 240.345054 
L 36.851471 239.923753 
L 39.613266 239.349921 
L 42.375062 238.579967 
L 45.136857 237.562239 
L 47.898652 236.23704 
L 50.660447 234.537188 
L 53.422242 232.389269 
L 56.184038 229.715665 
L 58.945833 226.4374 
L 61.707628 222.477787 
L 64.469423 217.766754 
L 67.231219 212.245656 
L 69.993014 205.872268 
L 72.754809 198.625605 
L 75.516604 190.51015 
L 78.2784 181.55907 
L 81.040195 171.836038 
L 83.80199 161.435359 
L 89.325581 139.119107 
L 100.372761 93.131807 
L 103.134557 82.410581 
L 105.896352 72.333054 
L 108.658147 63.030949 
L 111.419942 54.60793 
L 114.181738 47.137197 
L 116.943533 40.66096 
L 119.705328 35.191702 
L 122.467123 30.714943 
L 125.228919 27.193164 
L 127.990714 24.570472 
L 130.752509 22.777584 
L 133.514304 21.736751 
L 136.2761 21.366286 
L 139.037895 21.584482 
L 141.79969 22.312756 
L 144.561485 23.477977 
L 147.32328 25.013986 
L 150.085076 26.862408 
L 152.846871 28.97285 
L 155.608666 31.302635 
L 158.370461 33.816205 
L 163.894052 39.283179 
L 169.417642 45.199603 
L 174.941233 51.450631 
L 183.226619 61.289586 
L 191.512004 71.524101 
L 202.559185 85.541919 
L 227.415342 117.259402 
L 235.700728 127.51449 
L 243.986114 137.462917 
L 252.271499 147.032905 
L 260.556885 156.164724 
L 266.080476 161.985169 
L 271.604066 167.57831 
L 277.127657 172.935283 
L 282.651247 178.049431 
L 288.174838 182.916206 
L 293.698428 187.53305 
L 299.222018 191.899263 
L 304.745609 196.015866 
L 310.269199 199.885451 
L 315.79279 203.512024 
L 321.31638 206.900856 
L 326.839971 210.058319 
L 332.363561 212.991737 
L 337.887152 215.709229 
L 343.410742 218.219567 
L 348.934333 220.532037 
L 354.457923 222.656304 
L 359.981514 224.602292 
L 365.505104 226.380069 
L 373.79049 228.753448 
L 382.075876 230.804918 
L 390.361261 232.567454 
L 398.646647 234.072699 
L 406.932033 235.350581 
L 415.217418 236.429048 
L 426.264599 237.601049 
L 433 238.186023 
L 433 238.186023 
" style="fill:none;stroke:#282828;stroke-linecap:round;stroke-width:1.2;"/>
   </g>
   <g id="patch_11">
    <path d="M 52.293 241.332 
L 52.293 45.798609 
" style="fill:none;stroke:#262626;stroke-linecap:square;stroke-linejoin:miter;"/>
   </g>
   <g id="patch_12">
    <path d="M 57.293 246.332 
L 416.007 246.332 
" style="fill:none;stroke:#262626;stroke-linecap:square;stroke-linejoin:miter;"/>
   </g>
  </g>
 </g>
 <defs>
  <clipPath id="pa2676aaf92">
   <rect height="230.964" width="358.714" x="57.293" y="10.368"/>
  </clipPath>
 </defs>
</svg>
